<svg width="18" height="20" viewBox="0 0 18 20" fill="none" xmlns="http://www.w3.org/2000/svg">
<g id="remove user">
<g id="Vector">
<path fill-rule="evenodd" clip-rule="evenodd" d="M14.1453 19.1907C10.7447 19.1919 6.14449 19.1907 2.74871 19.1907C1.63309 19.1846 0.583849 18.3799 0.312187 17.2836C0.168508 16.7047 0.252438 16.0768 0.510215 15.5431C1.89267 12.713 4.85982 10.7251 8.07931 10.6225C8.18436 10.6194 8.29002 10.6182 8.39566 10.6182C10.9119 10.6327 13.3936 11.7918 15.0194 13.7073C17.2727 15.9091 16.5818 17.2836 16.5818 17.2836C16.5818 17.2836 16.1933 18.3075 15.6923 18.6364C15.1913 18.9654 14.7413 19.1266 14.1453 19.1907ZM15.6406 17.4116C15.6406 17.4116 16.3636 15.9091 14.2479 14.1082C12.7984 12.4734 10.6028 11.4761 8.39266 11.4634C8.37032 11.4634 8.34855 11.4634 8.32621 11.4634C5.43513 11.4833 2.58993 13.2189 1.28535 15.8812C1.05111 16.3593 1.02218 16.9389 1.25339 17.4116C1.52204 17.9622 2.10639 18.3389 2.73604 18.3455C5.82091 18.3618 10.1024 18.3467 13.1818 18.3455H13.8187C13.8157 18.3328 13.8127 18.3201 13.8097 18.3075C13.8018 18.2736 13.8187 18.3455 13.8187 18.3455H14.158C15.4546 18.1819 15.6406 17.4116 15.6406 17.4116ZM8.39384 0.815447C10.2079 0.833558 11.9484 1.95281 12.6916 3.64738C13.2693 4.96524 13.198 6.55234 12.502 7.81466C11.5548 9.53217 9.47686 10.5494 7.49855 10.1829C5.51965 9.8159 3.87218 8.07608 3.66451 6.0205C3.46771 4.07963 4.58512 2.06267 6.41975 1.2332C7.03733 0.954292 7.7171 0.813636 8.39384 0.815447ZM8.33771 1.66062C7.31868 1.67088 6.31051 2.09228 5.58849 2.8306C4.38774 4.05911 4.13055 6.09957 5.08378 7.6082C6.03943 9.12045 8.12278 9.83946 9.84995 9.12106C11.3755 8.48598 12.4024 6.81797 12.2183 5.11797C12.074 3.7826 11.1805 2.5559 9.95801 2.00353C9.45152 1.77473 8.89673 1.65941 8.33771 1.66062Z" fill="black"/>
</g>
</g>
</svg>
